HIERARCHY
ROOT SpineBase
{
  OFFSET 0.000000 0.000000 0.000000
  CHANNELS 6 Xposition Yposition Zposition Zrotation Xrotation Yrotation
  JOINT SpineMid
  {
    OFFSET 0.000000 24.234998 0.000000
    CHANNELS 3 Zrotation Xrotation Yrotation
    JOINT SpineShoulder
    {
      OFFSET 0.000792 18.212750 -0.557611
      CHANNELS 3 Zrotation Xrotation Yrotation
      JOINT Neck
      {
        OFFSET -0.015582 6.106144 -0.448828
        CHANNELS 3 Zrotation Xrotation Yrotation
        JOINT Head
        {
          OFFSET 3.038739 12.674465 1.965551
          CHANNELS 3 Zrotation Xrotation Yrotation
          End Site
          {
            OFFSET 0 0 0
          }
        }
      }
      JOINT ShoulderLeft
      {
        OFFSET -12.625216 -1.163908 -9.891005
        CHANNELS 3 Zrotation Xrotation Yrotation
        JOINT ElbowLeft
        {
          OFFSET -3.942131 -18.158888 -7.279501
          CHANNELS 3 Zrotation Xrotation Yrotation
          JOINT WristLeft
          {
            OFFSET 7.036405 -17.415774 -7.492610
            CHANNELS 3 Zrotation Xrotation Yrotation
            JOINT HandLeft
            {
              OFFSET -0.564430 -1.750131 -0.078011
              CHANNELS 3 Zrotation Xrotation Yrotation
              JOINT HandTipLeft
              {
                OFFSET 1.639821 0.466367 -4.407706
                CHANNELS 3 Zrotation Xrotation Yrotation
                End Site
                {
                  OFFSET 0 0 0
                }
              }
              JOINT ThumbLeft
              {
                OFFSET -3.234217 -0.433842 0.104694
                CHANNELS 3 Zrotation Xrotation Yrotation
                End Site
                {
                  OFFSET 0 0 0
                }
              }
            }
          }
        }
      }
      JOINT ShoulderRight
      {
        OFFSET 13.895931 -5.326904 1.952503
        CHANNELS 3 Zrotation Xrotation Yrotation
        JOINT ElbowRight
        {
          OFFSET 4.513843 -23.307347 -1.394541
          CHANNELS 3 Zrotation Xrotation Yrotation
          JOINT WristRight
          {
            OFFSET 2.542493 -6.285536 -20.615213
            CHANNELS 3 Zrotation Xrotation Yrotation
            JOINT HandRight
            {
              OFFSET -2.396346 -0.138796 -16.418461
              CHANNELS 3 Zrotation Xrotation Yrotation
              JOINT HandTipRight
              {
                OFFSET -0.626140 -0.944523 -2.931347
                CHANNELS 3 Zrotation Xrotation Yrotation
                End Site
                {
                  OFFSET 0 0 0
                }
              }
              JOINT ThumbRight
              {
                OFFSET -5.307522 1.792592 -0.901178
                CHANNELS 3 Zrotation Xrotation Yrotation
                End Site
                {
                  OFFSET 0 0 0
                }
              }
            }
          }
        }
      }
    }
  }
  JOINT HipLeft
  {
    OFFSET -6.345533 1.671262 -5.720267
    CHANNELS 3 Zrotation Xrotation Yrotation
    JOINT KneeLeft
    {
      OFFSET 9.651280 1.717114 -29.922092
      CHANNELS 3 Zrotation Xrotation Yrotation
      JOINT AnkleLeft
      {
        OFFSET -0.530024 -36.571718 -7.765329
        CHANNELS 3 Zrotation Xrotation Yrotation
        JOINT FootLeft
        {
          OFFSET 3.725598 -2.431139 -12.168616
          CHANNELS 3 Zrotation Xrotation Yrotation
          End Site
          {
            OFFSET 0 0 0
          }
        }
      }
    }
  }
  JOINT HipRight
  {
    OFFSET 6.062018 0.892717 -0.228381
    CHANNELS 3 Zrotation Xrotation Yrotation
    JOINT KneeRight
    {
      OFFSET 16.520715 -1.986787 -27.689102
      CHANNELS 3 Zrotation Xrotation Yrotation
      JOINT AnkleRight
      {
        OFFSET -0.938790 -34.878206 -0.708596
        CHANNELS 3 Zrotation Xrotation Yrotation
        JOINT FootRight
        {
          OFFSET -1.714963 -6.281616 -7.532227
          CHANNELS 3 Zrotation Xrotation Yrotation
          End Site
          {
            OFFSET 0 0 0
          }
        }
      }
    }
  }
}
MOTION
Frames: 6
Frame Time: 0.033333
15.753260 42.710179 366.126023 -0.000000 0.000000 -23.875356 -0.000000 0.000000 23.875356 -0.000000 0.000000 0.000000 -0.000000 0.000000 0.000000 0.000000 0.000000 0.000000 -0.000000 0.000000 0.000000 -0.000000 0.000000 0.000000 -0.000000 0.000000 0.000000 -0.000000 0.000000 0.000000 0.000000 0.000000 0.000000 0.000000 0.000000 0.000000 -0.000000 0.000000 0.000000 -0.000000 0.000000 0.000000 -0.000000 0.000000 0.000000 -0.000000 0.000000 0.000000 0.000000 0.000000 0.000000 0.000000 0.000000 0.000000 -0.000000 0.000000 23.875356 -0.000000 0.000000 0.000000 -0.000000 0.000000 0.000000 0.000000 0.000000 0.000000 -0.000000 0.000000 23.875356 -0.000000 0.000000 0.000000 -0.000000 0.000000 0.000000 0.000000 0.000000 0.000000
15.854709 42.743600 366.194897 0.199794 0.055696 -24.100341 -0.159635 -0.132424 24.100060 -0.000000 0.000000 0.000000 -0.000000 0.000000 0.000000 0.000000 0.000000 0.000000 1.700482 0.040361 -0.693224 -1.699870 -0.060911 0.691721 23.991047 40.129562 -24.395572 -11.860279 -51.189755 10.506991 0.000000 0.000000 0.000000 0.000000 0.000000 0.000000 -0.000000 0.000000 0.000000 0.458070 -1.523164 -2.204741 -0.179296 -0.276895 3.061518 -4.889174 8.092820 8.295361 0.000000 0.000000 0.000000 0.000000 0.000000 0.000000 -0.159635 -0.132424 24.100060 -0.000000 0.000000 0.000000 -0.000000 0.000000 0.000000 0.000000 0.000000 0.000000 -0.446521 -2.674367 23.765644 1.287667 2.210531 0.302544 -0.000000 0.000000 0.000000 0.000000 0.000000 0.000000
15.917820 42.780386 366.262828 0.346949 0.100098 -24.316300 -0.274954 -0.234080 24.315435 -0.000000 0.000000 0.000000 -0.196468 0.940565 -0.193102 0.000000 0.000000 0.000000 3.190407 0.086745 -1.307997 -4.192991 -0.662536 1.538544 68.748220 55.126173 -68.666025 -20.520820 -89.516807 12.625528 0.000000 0.000000 0.000000 0.000000 0.000000 0.000000 -0.000000 0.000000 0.000000 0.777634 -2.540259 -3.827467 -0.326302 -0.285819 5.243125 -8.604444 13.077961 14.172226 0.000000 0.000000 0.000000 0.000000 0.000000 0.000000 -0.274954 -0.234080 24.315435 -0.000000 0.000000 0.000000 -0.000000 0.000000 0.000000 0.000000 0.000000 0.000000 -0.802895 -4.973517 23.593242 1.050611 4.361944 0.731326 0.797654 -0.655988 0.728254 0.000000 0.000000 0.000000
15.942592 42.820535 366.329815 0.441454 0.133204 -24.523891 -0.346345 -0.304419 24.522457 -0.000000 0.000000 0.000000 -0.278257 1.345308 -0.275475 0.000000 0.000000 0.000000 4.492491 0.143144 -1.853247 -5.962064 -1.198970 2.118220 91.304345 53.591255 -91.124298 160.211228 -71.786515 -162.460941 0.000000 0.000000 0.000000 0.000000 0.000000 0.000000 -0.164926 0.788526 0.163694 1.136845 -3.766646 -4.934939 -0.470646 -0.218155 6.506835 -11.000231 15.857290 17.718213 0.000000 0.000000 0.000000 0.000000 0.000000 0.000000 -0.346345 -0.304419 24.522457 -0.000000 0.000000 0.000000 -0.000000 0.000000 0.000000 0.000000 0.000000 0.000000 -1.075736 -6.913291 23.363611 1.373424 6.257036 1.173313 1.066694 -0.728623 1.042642 0.000000 0.000000 0.000000
15.929025 42.864047 366.395859 0.483275 0.155012 -24.723698 -0.374150 -0.342923 24.721924 -0.000000 0.000000 0.000000 -0.349107 1.705227 -0.348468 0.000000 0.000000 0.000000 5.626619 0.212418 -2.336828 -7.538905 -1.860554 2.579589 100.674942 51.526754 -100.424665 159.058000 -60.621814 -161.562573 0.000000 0.000000 0.000000 0.000000 0.000000 0.000000 -0.107233 0.833980 0.168670 1.181185 -3.625374 -5.187165 -0.622302 -0.144083 6.821684 -12.140465 17.019056 19.208531 0.000000 0.000000 0.000000 0.000000 0.000000 0.000000 -0.374150 -0.342923 24.721924 -0.000000 0.000000 0.000000 -0.000000 0.000000 0.000000 0.000000 0.000000 0.000000 -1.269977 -8.509553 23.080025 1.590902 7.988515 1.668209 1.226561 -0.640660 1.324611 0.000000 0.000000 0.000000
15.877120 42.910923 366.460959 0.472354 0.165512 -24.916236 -0.358667 -0.349101 24.914461 -0.000000 0.000000 0.000000 -0.409027 2.019550 -0.412121 0.000000 0.000000 0.000000 6.610042 0.296607 -2.765553 -8.940845 -2.641050 2.928161 105.395826 50.314931 -105.119366 158.383458 -52.700719 -160.971968 0.000000 0.000000 0.000000 0.000000 0.000000 0.000000 -0.000000 0.000000 0.000000 1.080222 -1.977985 -4.563201 -0.784638 -0.018255 6.168349 -12.101905 16.799457 18.855044 0.000000 0.000000 0.000000 0.000000 0.000000 0.000000 -0.358667 -0.349101 24.914461 -0.000000 0.000000 0.000000 -0.000000 0.000000 0.000000 0.000000 0.000000 0.000000 -1.389146 -9.776664 22.743913 1.723418 9.572176 2.215265 1.261841 -0.398436 1.574261 0.000000 0.000000 0.000000
